P3
50 50
255
0 0 0 1 1 0 2 2 0 3 3 0 4 4 0 5 5 0 6 6 0 7 7 0 8 8 0 9 9 0 10 10 0 11 11 0 12 12 0 13 13 0 14 14 0 15 15 0 16 16 0 17 17 0 18 18 0 19 19 0 20 20 0 21 21 0 22 22 0 23 23 0 24 24 0 25 25 0 26 26 0 27 27 0 28 28 0 29 29 0 30 30 0 31 31 0 32 32 0 33 33 0 34 34 0 35 35 0 36 36 0 37 37 0 38 38 0 39 39 0 40 40 0 41 41 0 42 42 0 43 43 0 44 44 0 45 45 0 46 46 0 47 47 0 48 48 0 49 49 0 
1 1 0 2 0 1 3 1 2 4 2 3 5 3 4 6 4 5 7 5 6 8 6 7 9 7 8 10 8 9 11 9 10 12 10 11 13 11 12 14 12 13 15 13 14 16 14 15 17 15 16 18 16 17 19 17 18 20 18 19 21 19 20 22 20 21 23 21 22 24 22 23 25 23 24 26 24 25 27 25 26 28 26 27 29 27 28 30 28 29 31 29 30 32 30 31 33 31 32 34 32 33 35 33 34 36 34 35 37 35 36 38 36 37 39 37 38 40 38 39 41 39 40 42 40 41 43 41 42 44 42 43 45 43 44 46 44 45 47 45 46 48 46 47 49 47 48 50 48 49 
2 2 0 3 1 2 4 0 4 5 1 6 6 2 8 7 3 10 8 4 12 9 5 14 10 6 16 11 7 18 12 8 20 13 9 22 14 10 24 15 11 26 16 12 28 17 13 30 18 14 32 19 15 34 20 16 36 21 17 38 22 18 40 23 19 42 24 20 44 25 21 46 26 22 48 27 23 50 28 24 52 29 25 54 30 26 56 31 27 58 32 28 60 33 29 62 34 30 64 35 31 66 36 32 68 37 33 70 38 34 72 39 35 74 40 36 76 41 37 78 42 38 80 43 39 82 44 40 84 45 41 86 46 42 88 47 43 90 48 44 92 49 45 94 50 46 96 51 47 98 
3 3 0 4 2 3 5 1 6 6 0 9 7 1 12 8 2 15 9 3 18 10 4 21 11 5 24 12 6 27 13 7 30 14 8 33 15 9 36 16 10 39 17 11 42 18 12 45 19 13 48 20 14 51 21 15 54 22 16 57 23 17 60 24 18 63 25 19 66 26 20 69 27 21 72 28 22 75 29 23 78 30 24 81 31 25 84 32 26 87 33 27 90 34 28 93 35 29 96 36 30 99 37 31 102 38 32 105 39 33 108 40 34 111 41 35 114 42 36 117 43 37 120 44 38 123 45 39 126 46 40 129 47 41 132 48 42 135 49 43 138 50 44 141 51 45 144 52 46 147 
4 4 0 5 3 4 6 2 8 7 1 12 8 0 16 9 1 20 10 2 24 11 3 28 12 4 32 13 5 36 14 6 40 15 7 44 16 8 48 17 9 52 18 10 56 19 11 60 20 12 64 21 13 68 22 14 72 23 15 76 24 16 80 25 17 84 26 18 88 27 19 92 28 20 96 29 21 100 30 22 104 31 23 108 32 24 112 33 25 116 34 26 120 35 27 124 36 28 128 37 29 132 38 30 136 39 31 140 40 32 144 41 33 148 42 34 152 43 35 156 44 36 160 45 37 164 46 38 168 47 39 172 48 40 176 49 41 180 50 42 184 51 43 188 52 44 192 53 45 196 
5 5 0 6 4 5 7 3 10 8 2 15 9 1 20 10 0 25 11 1 30 12 2 35 13 3 40 14 4 45 15 5 50 16 6 55 17 7 60 18 8 65 19 9 70 20 10 75 21 11 80 22 12 85 23 13 90 24 14 95 25 15 100 26 16 105 27 17 110 28 18 115 29 19 120 30 20 125 31 21 130 32 22 135 33 23 140 34 24 145 35 25 150 36 26 155 37 27 160 38 28 165 39 29 170 40 30 175 41 31 180 42 32 185 43 33 190 44 34 195 45 35 200 46 36 205 47 37 210 48 38 215 49 39 220 50 40 225 51 41 230 52 42 235 53 43 240 54 44 245 
6 6 0 7 5 6 8 4 12 9 3 18 10 2 24 11 1 30 12 0 36 13 1 42 14 2 48 15 3 54 16 4 60 17 5 66 18 6 72 19 7 78 20 8 84 21 9 90 22 10 96 23 11 102 24 12 108 25 13 114 26 14 120 27 15 126 28 16 132 29 17 138 30 18 144 31 19 150 32 20 156 33 21 162 34 22 168 35 23 174 36 24 180 37 25 186 38 26 192 39 27 198 40 28 204 41 29 210 42 30 216 43 31 222 44 32 228 45 33 234 46 34 240 47 35 246 48 36 252 49 37 3 50 38 9 51 39 15 52 40 21 53 41 27 54 42 33 55 43 39 
7 7 0 8 6 7 9 5 14 10 4 21 11 3 28 12 2 35 13 1 42 14 0 49 15 1 56 16 2 63 17 3 70 18 4 77 19 5 84 20 6 91 21 7 98 22 8 105 23 9 112 24 10 119 25 11 126 26 12 133 27 13 140 28 14 147 29 15 154 30 16 161 31 17 168 32 18 175 33 19 182 34 20 189 35 21 196 36 22 203 37 23 210 38 24 217 39 25 224 40 26 231 41 27 238 42 28 245 43 29 252 44 30 4 45 31 11 46 32 18 47 33 25 48 34 32 49 35 39 50 36 46 51 37 53 52 38 60 53 39 67 54 40 74 55 41 81 56 42 88 
8 8 0 9 7 8 10 6 16 11 5 24 12 4 32 13 3 40 14 2 48 15 1 56 16 0 64 17 1 72 18 2 80 19 3 88 20 4 96 21 5 104 22 6 112 23 7 120 24 8 128 25 9 136 26 10 144 27 11 152 28 12 160 29 13 168 30 14 176 31 15 184 32 16 192 33 17 200 34 18 208 35 19 216 36 20 224 37 21 232 38 22 240 39 23 248 40 24 1 41 25 9 42 26 17 43 27 25 44 28 33 45 29 41 46 30 49 47 31 57 48 32 65 49 33 73 50 34 81 51 35 89 52 36 97 53 37 105 54 38 113 55 39 121 56 40 129 57 41 137 
9 9 0 10 8 9 11 7 18 12 6 27 13 5 36 14 4 45 15 3 54 16 2 63 17 1 72 18 0 81 19 1 90 20 2 99 21 3 108 22 4 117 23 5 126 24 6 135 25 7 144 26 8 153 27 9 162 28 10 171 29 11 180 30 12 189 31 13 198 32 14 207 33 15 216 34 16 225 35 17 234 36 18 243 37 19 252 38 20 6 39 21 15 40 22 24 41 23 33 42 24 42 43 25 51 44 26 60 45 27 69 46 28 78 47 29 87 48 30 96 49 31 105 50 32 114 51 33 123 52 34 132 53 35 141 54 36 150 55 37 159 56 38 168 57 39 177 58 40 186 
10 10 0 11 9 10 12 8 20 13 7 30 14 6 40 15 5 50 16 4 60 17 3 70 18 2 80 19 1 90 20 0 100 21 1 110 22 2 120 23 3 130 24 4 140 25 5 150 26 6 160 27 7 170 28 8 180 29 9 190 30 10 200 31 11 210 32 12 220 33 13 230 34 14 240 35 15 250 36 16 5 37 17 15 38 18 25 39 19 35 40 20 45 41 21 55 42 22 65 43 23 75 44 24 85 45 25 95 46 26 105 47 27 115 48 28 125 49 29 135 50 30 145 51 31 155 52 32 165 53 33 175 54 34 185 55 35 195 56 36 205 57 37 215 58 38 225 59 39 235 
11 11 0 12 10 11 13 9 22 14 8 33 15 7 44 16 6 55 17 5 66 18 4 77 19 3 88 20 2 99 21 1 110 22 0 121 23 1 132 24 2 143 25 3 154 26 4 165 27 5 176 28 6 187 29 7 198 30 8 209 31 9 220 32 10 231 33 11 242 34 12 253 35 13 9 36 14 20 37 15 31 38 16 42 39 17 53 40 18 64 41 19 75 42 20 86 43 21 97 44 22 108 45 23 119 46 24 130 47 25 141 48 26 152 49 27 163 50 28 174 51 29 185 52 30 196 53 31 207 54 32 218 55 33 229 56 34 240 57 35 251 58 36 7 59 37 18 60 38 29 
12 12 0 13 11 12 14 10 24 15 9 36 16 8 48 17 7 60 18 6 72 19 5 84 20 4 96 21 3 108 22 2 120 23 1 132 24 0 144 25 1 156 26 2 168 27 3 180 28 4 192 29 5 204 30 6 216 31 7 228 32 8 240 33 9 252 34 10 9 35 11 21 36 12 33 37 13 45 38 14 57 39 15 69 40 16 81 41 17 93 42 18 105 43 19 117 44 20 129 45 21 141 46 22 153 47 23 165 48 24 177 49 25 189 50 26 201 51 27 213 52 28 225 53 29 237 54 30 249 55 31 6 56 32 18 57 33 30 58 34 42 59 35 54 60 36 66 61 37 78 
13 13 0 14 12 13 15 11 26 16 10 39 17 9 52 18 8 65 19 7 78 20 6 91 21 5 104 22 4 117 23 3 130 24 2 143 25 1 156 26 0 169 27 1 182 28 2 195 29 3 208 30 4 221 31 5 234 32 6 247 33 7 5 34 8 18 35 9 31 36 10 44 37 11 57 38 12 70 39 13 83 40 14 96 41 15 109 42 16 122 43 17 135 44 18 148 45 19 161 46 20 174 47 21 187 48 22 200 49 23 213 50 24 226 51 25 239 52 26 252 53 27 10 54 28 23 55 29 36 56 30 49 57 31 62 58 32 75 59 33 88 60 34 101 61 35 114 62 36 127 
14 14 0 15 13 14 16 12 28 17 11 42 18 10 56 19 9 70 20 8 84 21 7 98 22 6 112 23 5 126 24 4 140 25 3 154 26 2 168 27 1 182 28 0 196 29 1 210 30 2 224 31 3 238 32 4 252 33 5 11 34 6 25 35 7 39 36 8 53 37 9 67 38 10 81 39 11 95 40 12 109 41 13 123 42 14 137 43 15 151 44 16 165 45 17 179 46 18 193 47 19 207 48 20 221 49 21 235 50 22 249 51 23 8 52 24 22 53 25 36 54 26 50 55 27 64 56 28 78 57 29 92 58 30 106 59 31 120 60 32 134 61 33 148 62 34 162 63 35 176 
15 15 0 16 14 15 17 13 30 18 12 45 19 11 60 20 10 75 21 9 90 22 8 105 23 7 120 24 6 135 25 5 150 26 4 165 27 3 180 28 2 195 29 1 210 30 0 225 31 1 240 32 2 0 33 3 15 34 4 30 35 5 45 36 6 60 37 7 75 38 8 90 39 9 105 40 10 120 41 11 135 42 12 150 43 13 165 44 14 180 45 15 195 46 16 210 47 17 225 48 18 240 49 19 0 50 20 15 51 21 30 52 22 45 53 23 60 54 24 75 55 25 90 56 26 105 57 27 120 58 28 135 59 29 150 60 30 165 61 31 180 62 32 195 63 33 210 64 34 225 
16 16 0 17 15 16 18 14 32 19 13 48 20 12 64 21 11 80 22 10 96 23 9 112 24 8 128 25 7 144 26 6 160 27 5 176 28 4 192 29 3 208 30 2 224 31 1 240 32 0 1 33 1 17 34 2 33 35 3 49 36 4 65 37 5 81 38 6 97 39 7 113 40 8 129 41 9 145 42 10 161 43 11 177 44 12 193 45 13 209 46 14 225 47 15 241 48 16 2 49 17 18 50 18 34 51 19 50 52 20 66 53 21 82 54 22 98 55 23 114 56 24 130 57 25 146 58 26 162 59 27 178 60 28 194 61 29 210 62 30 226 63 31 242 64 32 3 65 33 19 
17 17 0 18 16 17 19 15 34 20 14 51 21 13 68 22 12 85 23 11 102 24 10 119 25 9 136 26 8 153 27 7 170 28 6 187 29 5 204 30 4 221 31 3 238 32 2 0 33 1 17 34 0 34 35 1 51 36 2 68 37 3 85 38 4 102 39 5 119 40 6 136 41 7 153 42 8 170 43 9 187 44 10 204 45 11 221 46 12 238 47 13 0 48 14 17 49 15 34 50 16 51 51 17 68 52 18 85 53 19 102 54 20 119 55 21 136 56 22 153 57 23 170 58 24 187 59 25 204 60 26 221 61 27 238 62 28 0 63 29 17 64 30 34 65 31 51 66 32 68 
18 18 0 19 17 18 20 16 36 21 15 54 22 14 72 23 13 90 24 12 108 25 11 126 26 10 144 27 9 162 28 8 180 29 7 198 30 6 216 31 5 234 32 4 252 33 3 15 34 2 33 35 1 51 36 0 69 37 1 87 38 2 105 39 3 123 40 4 141 41 5 159 42 6 177 43 7 195 44 8 213 45 9 231 46 10 249 47 11 12 48 12 30 49 13 48 50 14 66 51 15 84 52 16 102 53 17 120 54 18 138 55 19 156 56 20 174 57 21 192 58 22 210 59 23 228 60 24 246 61 25 9 62 26 27 63 27 45 64 28 63 65 29 81 66 30 99 67 31 117 
19 19 0 20 18 19 21 17 38 22 16 57 23 15 76 24 14 95 25 13 114 26 12 133 27 11 152 28 10 171 29 9 190 30 8 209 31 7 228 32 6 247 33 5 11 34 4 30 35 3 49 36 2 68 37 1 87 38 0 106 39 1 125 40 2 144 41 3 163 42 4 182 43 5 201 44 6 220 45 7 239 46 8 3 47 9 22 48 10 41 49 11 60 50 12 79 51 13 98 52 14 117 53 15 136 54 16 155 55 17 174 56 18 193 57 19 212 58 20 231 59 21 250 60 22 14 61 23 33 62 24 52 63 25 71 64 26 90 65 27 109 66 28 128 67 29 147 68 30 166 
20 20 0 21 19 20 22 18 40 23 17 60 24 16 80 25 15 100 26 14 120 27 13 140 28 12 160 29 11 180 30 10 200 31 9 220 32 8 240 33 7 5 34 6 25 35 5 45 36 4 65 37 3 85 38 2 105 39 1 125 40 0 145 41 1 165 42 2 185 43 3 205 44 4 225 45 5 245 46 6 10 47 7 30 48 8 50 49 9 70 50 10 90 51 11 110 52 12 130 53 13 150 54 14 170 55 15 190 56 16 210 57 17 230 58 18 250 59 19 15 60 20 35 61 21 55 62 22 75 63 23 95 64 24 115 65 25 135 66 26 155 67 27 175 68 28 195 69 29 215 
21 21 0 22 20 21 23 19 42 24 18 63 25 17 84 26 16 105 27 15 126 28 14 147 29 13 168 30 12 189 31 11 210 32 10 231 33 9 252 34 8 18 35 7 39 36 6 60 37 5 81 38 4 102 39 3 123 40 2 144 41 1 165 42 0 186 43 1 207 44 2 228 45 3 249 46 4 15 47 5 36 48 6 57 49 7 78 50 8 99 51 9 120 52 10 141 53 11 162 54 12 183 55 13 204 56 14 225 57 15 246 58 16 12 59 17 33 60 18 54 61 19 75 62 20 96 63 21 117 64 22 138 65 23 159 66 24 180 67 25 201 68 26 222 69 27 243 70 28 9 
22 22 0 23 21 22 24 20 44 25 19 66 26 18 88 27 17 110 28 16 132 29 15 154 30 14 176 31 13 198 32 12 220 33 11 242 34 10 9 35 9 31 36 8 53 37 7 75 38 6 97 39 5 119 40 4 141 41 3 163 42 2 185 43 1 207 44 0 229 45 1 251 46 2 18 47 3 40 48 4 62 49 5 84 50 6 106 51 7 128 52 8 150 53 9 172 54 10 194 55 11 216 56 12 238 57 13 5 58 14 27 59 15 49 60 16 71 61 17 93 62 18 115 63 19 137 64 20 159 65 21 181 66 22 203 67 23 225 68 24 247 69 25 14 70 26 36 71 27 58 
23 23 0 24 22 23 25 21 46 26 20 69 27 19 92 28 18 115 29 17 138 30 16 161 31 15 184 32 14 207 33 13 230 34 12 253 35 11 21 36 10 44 37 9 67 38 8 90 39 7 113 40 6 136 41 5 159 42 4 182 43 3 205 44 2 228 45 1 251 46 0 19 47 1 42 48 2 65 49 3 88 50 4 111 51 5 134 52 6 157 53 7 180 54 8 203 55 9 226 56 10 249 57 11 17 58 12 40 59 13 63 60 14 86 61 15 109 62 16 132 63 17 155 64 18 178 65 19 201 66 20 224 67 21 247 68 22 15 69 23 38 70 24 61 71 25 84 72 26 107 
24 24 0 25 23 24 26 22 48 27 21 72 28 20 96 29 19 120 30 18 144 31 17 168 32 16 192 33 15 216 34 14 240 35 13 9 36 12 33 37 11 57 38 10 81 39 9 105 40 8 129 41 7 153 42 6 177 43 5 201 44 4 225 45 3 249 46 2 18 47 1 42 48 0 66 49 1 90 50 2 114 51 3 138 52 4 162 53 5 186 54 6 210 55 7 234 56 8 3 57 9 27 58 10 51 59 11 75 60 12 99 61 13 123 62 14 147 63 15 171 64 16 195 65 17 219 66 18 243 67 19 12 68 20 36 69 21 60 70 22 84 71 23 108 72 24 132 73 25 156 
25 25 0 26 24 25 27 23 50 28 22 75 29 21 100 30 20 125 31 19 150 32 18 175 33 17 200 34 16 225 35 15 250 36 14 20 37 13 45 38 12 70 39 11 95 40 10 120 41 9 145 42 8 170 43 7 195 44 6 220 45 5 245 46 4 15 47 3 40 48 2 65 49 1 90 50 0 115 51 1 140 52 2 165 53 3 190 54 4 215 55 5 240 56 6 10 57 7 35 58 8 60 59 9 85 60 10 110 61 11 135 62 12 160 63 13 185 64 14 210 65 15 235 66 16 5 67 17 30 68 18 55 69 19 80 70 20 105 71 21 130 72 22 155 73 23 180 74 24 205 
26 26 0 27 25 26 28 24 52 29 23 78 30 22 104 31 21 130 32 20 156 33 19 182 34 18 208 35 17 234 36 16 5 37 15 31 38 14 57 39 13 83 40 12 109 41 11 135 42 10 161 43 9 187 44 8 213 45 7 239 46 6 10 47 5 36 48 4 62 49 3 88 50 2 114 51 1 140 52 0 166 53 1 192 54 2 218 55 3 244 56 4 15 57 5 41 58 6 67 59 7 93 60 8 119 61 9 145 62 10 171 63 11 197 64 12 223 65 13 249 66 14 20 67 15 46 68 16 72 69 17 98 70 18 124 71 19 150 72 20 176 73 21 202 74 22 228 75 23 254 
27 27 0 28 26 27 29 25 54 30 24 81 31 23 108 32 22 135 33 21 162 34 20 189 35 19 216 36 18 243 37 17 15 38 16 42 39 15 69 40 14 96 41 13 123 42 12 150 43 11 177 44 10 204 45 9 231 46 8 3 47 7 30 48 6 57 49 5 84 50 4 111 51 3 138 52 2 165 53 1 192 54 0 219 55 1 246 56 2 18 57 3 45 58 4 72 59 5 99 60 6 126 61 7 153 62 8 180 63 9 207 64 10 234 65 11 6 66 12 33 67 13 60 68 14 87 69 15 114 70 16 141 71 17 168 72 18 195 73 19 222 74 20 249 75 21 21 76 22 48 
28 28 0 29 27 28 30 26 56 31 25 84 32 24 112 33 23 140 34 22 168 35 21 196 36 20 224 37 19 252 38 18 25 39 17 53 40 16 81 41 15 109 42 14 137 43 13 165 44 12 193 45 11 221 46 10 249 47 9 22 48 8 50 49 7 78 50 6 106 51 5 134 52 4 162 53 3 190 54 2 218 55 1 246 56 0 19 57 1 47 58 2 75 59 3 103 60 4 131 61 5 159 62 6 187 63 7 215 64 8 243 65 9 16 66 10 44 67 11 72 68 12 100 69 13 128 70 14 156 71 15 184 72 16 212 73 17 240 74 18 13 75 19 41 76 20 69 77 21 97 
29 29 0 30 28 29 31 27 58 32 26 87 33 25 116 34 24 145 35 23 174 36 22 203 37 21 232 38 20 6 39 19 35 40 18 64 41 17 93 42 16 122 43 15 151 44 14 180 45 13 209 46 12 238 47 11 12 48 10 41 49 9 70 50 8 99 51 7 128 52 6 157 53 5 186 54 4 215 55 3 244 56 2 18 57 1 47 58 0 76 59 1 105 60 2 134 61 3 163 62 4 192 63 5 221 64 6 250 65 7 24 66 8 53 67 9 82 68 10 111 69 11 140 70 12 169 71 13 198 72 14 227 73 15 1 74 16 30 75 17 59 76 18 88 77 19 117 78 20 146 
30 30 0 31 29 30 32 28 60 33 27 90 34 26 120 35 25 150 36 24 180 37 23 210 38 22 240 39 21 15 40 20 45 41 19 75 42 18 105 43 17 135 44 16 165 45 15 195 46 14 225 47 13 0 48 12 30 49 11 60 50 10 90 51 9 120 52 8 150 53 7 180 54 6 210 55 5 240 56 4 15 57 3 45 58 2 75 59 1 105 60 0 135 61 1 165 62 2 195 63 3 225 64 4 0 65 5 30 66 6 60 67 7 90 68 8 120 69 9 150 70 10 180 71 11 210 72 12 240 73 13 15 74 14 45 75 15 75 76 16 105 77 17 135 78 18 165 79 19 195 
31 31 0 32 30 31 33 29 62 34 28 93 35 27 124 36 26 155 37 25 186 38 24 217 39 23 248 40 22 24 41 21 55 42 20 86 43 19 117 44 18 148 45 17 179 46 16 210 47 15 241 48 14 17 49 13 48 50 12 79 51 11 110 52 10 141 53 9 172 54 8 203 55 7 234 56 6 10 57 5 41 58 4 72 59 3 103 60 2 134 61 1 165 62 0 196 63 1 227 64 2 3 65 3 34 66 4 65 67 5 96 68 6 127 69 7 158 70 8 189 71 9 220 72 10 251 73 11 27 74 12 58 75 13 89 76 14 120 77 15 151 78 16 182 79 17 213 80 18 244 
32 32 0 33 31 32 34 30 64 35 29 96 36 28 128 37 27 160 38 26 192 39 25 224 40 24 1 41 23 33 42 22 65 43 21 97 44 20 129 45 19 161 46 18 193 47 17 225 48 16 2 49 15 34 50 14 66 51 13 98 52 12 130 53 11 162 54 10 194 55 9 226 56 8 3 57 7 35 58 6 67 59 5 99 60 4 131 61 3 163 62 2 195 63 1 227 64 0 4 65 1 36 66 2 68 67 3 100 68 4 132 69 5 164 70 6 196 71 7 228 72 8 5 73 9 37 74 10 69 75 11 101 76 12 133 77 13 165 78 14 197 79 15 229 80 16 6 81 17 38 
33 33 0 34 32 33 35 31 66 36 30 99 37 29 132 38 28 165 39 27 198 40 26 231 41 25 9 42 24 42 43 23 75 44 22 108 45 21 141 46 20 174 47 19 207 48 18 240 49 17 18 50 16 51 51 15 84 52 14 117 53 13 150 54 12 183 55 11 216 56 10 249 57 9 27 58 8 60 59 7 93 60 6 126 61 5 159 62 4 192 63 3 225 64 2 3 65 1 36 66 0 69 67 1 102 68 2 135 69 3 168 70 4 201 71 5 234 72 6 12 73 7 45 74 8 78 75 9 111 76 10 144 77 11 177 78 12 210 79 13 243 80 14 21 81 15 54 82 16 87 
34 34 0 35 33 34 36 32 68 37 31 102 38 30 136 39 29 170 40 28 204 41 27 238 42 26 17 43 25 51 44 24 85 45 23 119 46 22 153 47 21 187 48 20 221 49 19 0 50 18 34 51 17 68 52 16 102 53 15 136 54 14 170 55 13 204 56 12 238 57 11 17 58 10 51 59 9 85 60 8 119 61 7 153 62 6 187 63 5 221 64 4 0 65 3 34 66 2 68 67 1 102 68 0 136 69 1 170 70 2 204 71 3 238 72 4 17 73 5 51 74 6 85 75 7 119 76 8 153 77 9 187 78 10 221 79 11 0 80 12 34 81 13 68 82 14 102 83 15 136 
35 35 0 36 34 35 37 33 70 38 32 105 39 31 140 40 30 175 41 29 210 42 28 245 43 27 25 44 26 60 45 25 95 46 24 130 47 23 165 48 22 200 49 21 235 50 20 15 51 19 50 52 18 85 53 17 120 54 16 155 55 15 190 56 14 225 57 13 5 58 12 40 59 11 75 60 10 110 61 9 145 62 8 180 63 7 215 64 6 250 65 5 30 66 4 65 67 3 100 68 2 135 69 1 170 70 0 205 71 1 240 72 2 20 73 3 55 74 4 90 75 5 125 76 6 160 77 7 195 78 8 230 79 9 10 80 10 45 81 11 80 82 12 115 83 13 150 84 14 185 
36 36 0 37 35 36 38 34 72 39 33 108 40 32 144 41 31 180 42 30 216 43 29 252 44 28 33 45 27 69 46 26 105 47 25 141 48 24 177 49 23 213 50 22 249 51 21 30 52 20 66 53 19 102 54 18 138 55 17 174 56 16 210 57 15 246 58 14 27 59 13 63 60 12 99 61 11 135 62 10 171 63 9 207 64 8 243 65 7 24 66 6 60 67 5 96 68 4 132 69 3 168 70 2 204 71 1 240 72 0 21 73 1 57 74 2 93 75 3 129 76 4 165 77 5 201 78 6 237 79 7 18 80 8 54 81 9 90 82 10 126 83 11 162 84 12 198 85 13 234 
37 37 0 38 36 37 39 35 74 40 34 111 41 33 148 42 32 185 43 31 222 44 30 4 45 29 41 46 28 78 47 27 115 48 26 152 49 25 189 50 24 226 51 23 8 52 22 45 53 21 82 54 20 119 55 19 156 56 18 193 57 17 230 58 16 12 59 15 49 60 14 86 61 13 123 62 12 160 63 11 197 64 10 234 65 9 16 66 8 53 67 7 90 68 6 127 69 5 164 70 4 201 71 3 238 72 2 20 73 1 57 74 0 94 75 1 131 76 2 168 77 3 205 78 4 242 79 5 24 80 6 61 81 7 98 82 8 135 83 9 172 84 10 209 85 11 246 86 12 28 
38 38 0 39 37 38 40 36 76 41 35 114 42 34 152 43 33 190 44 32 228 45 31 11 46 30 49 47 29 87 48 28 125 49 27 163 50 26 201 51 25 239 52 24 22 53 23 60 54 22 98 55 21 136 56 20 174 57 19 212 58 18 250 59 17 33 60 16 71 61 15 109 62 14 147 63 13 185 64 12 223 65 11 6 66 10 44 67 9 82 68 8 120 69 7 158 70 6 196 71 5 234 72 4 17 73 3 55 74 2 93 75 1 131 76 0 169 77 1 207 78 2 245 79 3 28 80 4 66 81 5 104 82 6 142 83 7 180 84 8 218 85 9 1 86 10 39 87 11 77 
39 39 0 40 38 39 41 37 78 42 36 117 43 35 156 44 34 195 45 33 234 46 32 18 47 31 57 48 30 96 49 29 135 50 28 174 51 27 213 52 26 252 53 25 36 54 24 75 55 23 114 56 22 153 57 21 192 58 20 231 59 19 15 60 18 54 61 17 93 62 16 132 63 15 171 64 14 210 65 13 249 66 12 33 67 11 72 68 10 111 69 9 150 70 8 189 71 7 228 72 6 12 73 5 51 74 4 90 75 3 129 76 2 168 77 1 207 78 0 246 79 1 30 80 2 69 81 3 108 82 4 147 83 5 186 84 6 225 85 7 9 86 8 48 87 9 87 88 10 126 
40 40 0 41 39 40 42 38 80 43 37 120 44 36 160 45 35 200 46 34 240 47 33 25 48 32 65 49 31 105 50 30 145 51 29 185 52 28 225 53 27 10 54 26 50 55 25 90 56 24 130 57 23 170 58 22 210 59 21 250 60 20 35 61 19 75 62 18 115 63 17 155 64 16 195 65 15 235 66 14 20 67 13 60 68 12 100 69 11 140 70 10 180 71 9 220 72 8 5 73 7 45 74 6 85 75 5 125 76 4 165 77 3 205 78 2 245 79 1 30 80 0 70 81 1 110 82 2 150 83 3 190 84 4 230 85 5 15 86 6 55 87 7 95 88 8 135 89 9 175 
41 41 0 42 40 41 43 39 82 44 38 123 45 37 164 46 36 205 47 35 246 48 34 32 49 33 73 50 32 114 51 31 155 52 30 196 53 29 237 54 28 23 55 27 64 56 26 105 57 25 146 58 24 187 59 23 228 60 22 14 61 21 55 62 20 96 63 19 137 64 18 178 65 17 219 66 16 5 67 15 46 68 14 87 69 13 128 70 12 169 71 11 210 72 10 251 73 9 37 74 8 78 75 7 119 76 6 160 77 5 201 78 4 242 79 3 28 80 2 69 81 1 110 82 0 151 83 1 192 84 2 233 85 3 19 86 4 60 87 5 101 88 6 142 89 7 183 90 8 224 
42 42 0 43 41 42 44 40 84 45 39 126 46 38 168 47 37 210 48 36 252 49 35 39 50 34 81 51 33 123 52 32 165 53 31 207 54 30 249 55 29 36 56 28 78 57 27 120 58 26 162 59 25 204 60 24 246 61 23 33 62 22 75 63 21 117 64 20 159 65 19 201 66 18 243 67 17 30 68 16 72 69 15 114 70 14 156 71 13 198 72 12 240 73 11 27 74 10 69 75 9 111 76 8 153 77 7 195 78 6 237 79 5 24 80 4 66 81 3 108 82 2 150 83 1 192 84 0 234 85 1 21 86 2 63 87 3 105 88 4 147 89 5 189 90 6 231 91 7 18 
43 43 0 44 42 43 45 41 86 46 40 129 47 39 172 48 38 215 49 37 3 50 36 46 51 35 89 52 34 132 53 33 175 54 32 218 55 31 6 56 30 49 57 29 92 58 28 135 59 27 178 60 26 221 61 25 9 62 24 52 63 23 95 64 22 138 65 21 181 66 20 224 67 19 12 68 18 55 69 17 98 70 16 141 71 15 184 72 14 227 73 13 15 74 12 58 75 11 101 76 10 144 77 9 187 78 8 230 79 7 18 80 6 61 81 5 104 82 4 147 83 3 190 84 2 233 85 1 21 86 0 64 87 1 107 88 2 150 89 3 193 90 4 236 91 5 24 92 6 67 
44 44 0 45 43 44 46 42 88 47 41 132 48 40 176 49 39 220 50 38 9 51 37 53 52 36 97 53 35 141 54 34 185 55 33 229 56 32 18 57 31 62 58 30 106 59 29 150 60 28 194 61 27 238 62 26 27 63 25 71 64 24 115 65 23 159 66 22 203 67 21 247 68 20 36 69 19 80 70 18 124 71 17 168 72 16 212 73 15 1 74 14 45 75 13 89 76 12 133 77 11 177 78 10 221 79 9 10 80 8 54 81 7 98 82 6 142 83 5 186 84 4 230 85 3 19 86 2 63 87 1 107 88 0 151 89 1 195 90 2 239 91 3 28 92 4 72 93 5 116 
45 45 0 46 44 45 47 43 90 48 42 135 49 41 180 50 40 225 51 39 15 52 38 60 53 37 105 54 36 150 55 35 195 56 34 240 57 33 30 58 32 75 59 31 120 60 30 165 61 29 210 62 28 0 63 27 45 64 26 90 65 25 135 66 24 180 67 23 225 68 22 15 69 21 60 70 20 105 71 19 150 72 18 195 73 17 240 74 16 30 75 15 75 76 14 120 77 13 165 78 12 210 79 11 0 80 10 45 81 9 90 82 8 135 83 7 180 84 6 225 85 5 15 86 4 60 87 3 105 88 2 150 89 1 195 90 0 240 91 1 30 92 2 75 93 3 120 94 4 165 
46 46 0 47 45 46 48 44 92 49 43 138 50 42 184 51 41 230 52 40 21 53 39 67 54 38 113 55 37 159 56 36 205 57 35 251 58 34 42 59 33 88 60 32 134 61 31 180 62 30 226 63 29 17 64 28 63 65 27 109 66 26 155 67 25 201 68 24 247 69 23 38 70 22 84 71 21 130 72 20 176 73 19 222 74 18 13 75 17 59 76 16 105 77 15 151 78 14 197 79 13 243 80 12 34 81 11 80 82 10 126 83 9 172 84 8 218 85 7 9 86 6 55 87 5 101 88 4 147 89 3 193 90 2 239 91 1 30 92 0 76 93 1 122 94 2 168 95 3 214 
47 47 0 48 46 47 49 45 94 50 44 141 51 43 188 52 42 235 53 41 27 54 40 74 55 39 121 56 38 168 57 37 215 58 36 7 59 35 54 60 34 101 61 33 148 62 32 195 63 31 242 64 30 34 65 29 81 66 28 128 67 27 175 68 26 222 69 25 14 70 24 61 71 23 108 72 22 155 73 21 202 74 20 249 75 19 41 76 18 88 77 17 135 78 16 182 79 15 229 80 14 21 81 13 68 82 12 115 83 11 162 84 10 209 85 9 1 86 8 48 87 7 95 88 6 142 89 5 189 90 4 236 91 3 28 92 2 75 93 1 122 94 0 169 95 1 216 96 2 8 
48 48 0 49 47 48 50 46 96 51 45 144 52 44 192 53 43 240 54 42 33 55 41 81 56 40 129 57 39 177 58 38 225 59 37 18 60 36 66 61 35 114 62 34 162 63 33 210 64 32 3 65 31 51 66 30 99 67 29 147 68 28 195 69 27 243 70 26 36 71 25 84 72 24 132 73 23 180 74 22 228 75 21 21 76 20 69 77 19 117 78 18 165 79 17 213 80 16 6 81 15 54 82 14 102 83 13 150 84 12 198 85 11 246 86 10 39 87 9 87 88 8 135 89 7 183 90 6 231 91 5 24 92 4 72 93 3 120 94 2 168 95 1 216 96 0 9 97 1 57 
49 49 0 50 48 49 51 47 98 52 46 147 53 45 196 54 44 245 55 43 39 56 42 88 57 41 137 58 40 186 59 39 235 60 38 29 61 37 78 62 36 127 63 35 176 64 34 225 65 33 19 66 32 68 67 31 117 68 30 166 69 29 215 70 28 9 71 27 58 72 26 107 73 25 156 74 24 205 75 23 254 76 22 48 77 21 97 78 20 146 79 19 195 80 18 244 81 17 38 82 16 87 83 15 136 84 14 185 85 13 234 86 12 28 87 11 77 88 10 126 89 9 175 90 8 224 91 7 18 92 6 67 93 5 116 94 4 165 95 3 214 96 2 8 97 1 57 98 0 106 
